<?xml version="1.0" encoding="iso-8859-1"?>
<!-- Generator: Adobe Illustrator 19.0.0, SVG Export Plug-In . SVG Version: 6.00 Build 0)  -->
<svg version="1.1" id="Layer_1" xmlns="http://www.w3.org/2000/svg" xmlns:xlink="http://www.w3.org/1999/xlink" x="0px" y="0px"
	 viewBox="0 0 512.002 512.002" style="enable-background:new 0 0 512.002 512.002;" xml:space="preserve">
<g>
	<g>
		<g>
			<path d="M111.865,356.209c-17.556,0-31.837,14.282-31.837,31.837c0,17.556,14.282,31.837,31.837,31.837
				c17.556,0,31.837-14.282,31.837-31.837C143.703,370.491,129.421,356.209,111.865,356.209z M111.865,404.224
				c-8.92,0-16.179-7.258-16.179-16.179c0-8.92,7.258-16.179,16.179-16.179s16.179,7.258,16.179,16.179
				C128.044,396.966,120.785,404.224,111.865,404.224z"/>
			<path d="M399.963,356.209c-17.556,0-31.837,14.282-31.837,31.837c0,17.556,14.282,31.837,31.837,31.837
				c17.556,0,31.837-14.282,31.837-31.837C431.8,370.491,417.518,356.209,399.963,356.209z M399.963,404.224
				c-8.92,0-16.179-7.258-16.179-16.179c0-8.92,7.258-16.179,16.179-16.179c8.92,0,16.179,7.258,16.179,16.179
				C416.141,396.966,408.883,404.224,399.963,404.224z"/>
			<rect x="343.94" y="284.187" width="32.011" height="15.659"/>
			
				<rect x="376.127" y="192.665" transform="matrix(0.7071 0.7071 -0.7071 0.7071 256.6958 -211.7528)" width="15.659" height="22.635"/>
			
				<rect x="382.833" y="214.16" transform="matrix(-0.7071 0.7071 -0.7071 -0.7071 863.6399 86.2476)" width="62.248" height="15.659"/>
			
				<rect x="436.659" y="228.156" transform="matrix(-0.7071 0.7071 -0.7071 -0.7071 931.6102 86.0852)" width="22.635" height="15.659"/>
			<polygon points="127.697,187.979 112.039,187.979 112.039,212.16 87.857,212.16 87.857,227.819 112.039,227.819 112.039,252 
				127.697,252 127.697,227.819 151.879,227.819 151.879,212.16 127.697,212.16 			"/>
			<path d="M119.868,164.143c-30.793,0-55.845,25.052-55.845,55.845s25.052,55.846,55.845,55.846
				c30.794,0,55.845-25.053,55.845-55.846C175.713,189.195,150.661,164.143,119.868,164.143z M119.868,260.177
				c-22.159,0-40.187-18.029-40.187-40.188s18.027-40.187,40.187-40.187c22.159,0,40.187,18.027,40.187,40.187
				S142.027,260.177,119.868,260.177z"/>
			<path d="M351.947,116.127h-8.176V68.111h-55.672v48.016h-8.177v15.659h72.025V116.127z M328.112,116.127h-24.355V83.77h24.355
				V116.127z"/>
			<path d="M512,340.101h-0.173v-74.052l-67.153-125.913H0v255.74h56.579c3.82,27.098,27.15,48.016,55.286,48.016
				c28.136,0,51.465-20.918,55.286-48.016h177.527c3.82,27.098,27.15,48.016,55.286,48.016s51.465-20.918,55.286-48.016h56.579
				v-40.117h0.173v-15.658H512z M448.083,179.802l42.865,80.374H359.776v-80.374H448.083z M111.865,428.233
				c-22.159,0-40.187-18.027-40.187-40.187s18.027-40.187,40.187-40.187c22.159,0,40.187,18.027,40.187,40.187
				S134.024,428.233,111.865,428.233z M399.963,428.233c-22.159,0-40.187-18.027-40.187-40.187s18.027-40.187,40.187-40.187
				c22.159,0,40.187,18.027,40.187,40.187S422.122,428.233,399.963,428.233z M496.168,340.1h-16.179v15.659h16.179v24.458h-40.921
				c-3.82-27.098-27.15-48.016-55.286-48.016s-51.465,20.918-55.286,48.016H167.15C163.33,353.118,140,332.2,111.864,332.2
				s-51.465,20.918-55.286,48.016H15.659v-56.365h480.509V340.1z M496.168,284.185H383.957v15.659h112.211v8.349H15.659v-8.349
				h320.282v-15.659H15.659v-128.39h419.62l4.453,8.349h-95.615v111.692h152.051V284.185z"/>
			<rect x="311.933" y="164.147" width="16.005" height="15.659"/>
			<rect x="279.916" y="164.147" width="16.006" height="15.659"/>
			<rect x="247.91" y="164.147" width="16.005" height="15.659"/>
		</g>
	</g>
</g>
<g>
</g>
<g>
</g>
<g>
</g>
<g>
</g>
<g>
</g>
<g>
</g>
<g>
</g>
<g>
</g>
<g>
</g>
<g>
</g>
<g>
</g>
<g>
</g>
<g>
</g>
<g>
</g>
<g>
</g>
</svg>
