<?xml version="1.0" encoding="iso-8859-1"?>
<!-- Generator: Adobe Illustrator 19.0.0, SVG Export Plug-In . SVG Version: 6.00 Build 0)  -->
<svg version="1.1" id="Layer_1" xmlns="http://www.w3.org/2000/svg" xmlns:xlink="http://www.w3.org/1999/xlink" x="0px" y="0px"
	 viewBox="0 0 512.002 512.002" style="enable-background:new 0 0 512.002 512.002;" xml:space="preserve">
<g>
	<g>
		<g>
			<path d="M249.652,36.967c-4.642,5.171-27.784,31.804-27.784,48.367c0,18.825,15.309,34.133,34.133,34.133
				s34.133-15.309,34.133-34.133c0-16.563-23.142-43.196-27.785-48.367C259.116,33.357,252.886,33.357,249.652,36.967z
				 M256.001,102.4c-9.412,0-17.067-7.654-17.067-17.067c0-5.436,8.021-18.142,17.067-29.457
				c9.045,11.315,17.067,24.021,17.067,29.457C273.068,94.746,265.413,102.4,256.001,102.4z"/>
			<path d="M128.001,204.8c-4.71,0-8.533,3.823-8.533,8.533V230.4c0,11.469,7.586,21.205,18.005,24.448
				c2.62,17.937,11.11,68.736,26.095,91.221l1.348,2.039c10.957,16.614,29.286,44.425,91.085,44.425s80.128-27.81,91.085-44.425
				l1.348-2.039c14.984-22.485,23.475-73.284,26.095-91.221c4.651-1.451,8.678-4.233,11.785-7.851
				c3.558-1.016,6.221-4.164,6.221-8.064V230.4v-17.067c0-4.71-3.823-8.533-8.533-8.533c-4.71,0-8.533,3.823-8.533,8.533V230.4
				c0,4.702-3.831,8.533-8.533,8.533c-4.301,0-7.936,3.2-8.465,7.475c-2.304,18.432-11.153,70.571-24.235,90.189l-1.399,2.116
				c-10.223,15.514-24.226,36.753-76.834,36.753s-66.611-21.239-76.834-36.753l-1.399-2.116
				c-13.073-19.601-21.922-71.748-24.235-90.189c-0.529-4.275-4.164-7.475-8.465-7.475c-4.702,0-8.533-3.831-8.533-8.533v-17.067
				C136.534,208.623,132.711,204.8,128.001,204.8z"/>
			<path d="M93.868,187.734h324.267c4.71,0,8.533-3.823,8.533-8.533v-17.067c0-14.353-11.247-25.6-25.6-25.6h-0.939
				C391.288,63.693,371.15,0,256.001,0C126.414,0,119.809,61.782,112.155,133.325l-0.341,3.208h-0.879
				c-14.353,0-25.6,11.247-25.6,25.6V179.2C85.334,183.911,89.157,187.734,93.868,187.734z M102.401,162.134
				c0-4.864,3.669-8.533,8.533-8.533h230.4c4.71,0,8.533-3.823,8.533-8.533c0-4.71-3.823-8.533-8.533-8.533H128.974l0.154-1.391
				c7.603-71.108,12.629-118.076,126.874-118.076c100.745,0,118.477,51.115,126.933,119.467h-7.467c-4.71,0-8.533,3.823-8.533,8.533
				c0,4.71,3.823,8.533,8.533,8.533h25.6c4.949,0,8.533,3.584,8.533,8.533v8.533h-307.2V162.134z"/>
			<path d="M252.186,291.03c-14.925,7.467-30.191,7.637-30.319,7.637c-4.71,0-8.533,3.823-8.533,8.533s3.823,8.533,8.533,8.533
				c0.725,0,16.845-0.094,34.133-7.646c17.289,7.552,33.408,7.646,34.133,7.646c4.702,0,8.508-3.806,8.525-8.508
				c0.009-4.702-3.797-8.533-8.508-8.559c-0.145,0-15.411-0.171-30.336-7.637C257.417,289.835,254.584,289.835,252.186,291.03z"/>
			<path d="M230.401,221.867h-34.133c-4.71,0-8.533,3.823-8.533,8.533s3.823,8.533,8.533,8.533h8.533
				c0,4.71,3.823,8.533,8.533,8.533c4.71,0,8.533-3.823,8.533-8.533h8.533c4.71,0,8.533-3.823,8.533-8.533
				S235.111,221.867,230.401,221.867z"/>
			<path d="M401.068,477.867h-51.2c-4.71,0-8.533,3.823-8.533,8.533v17.067c0,4.71,3.823,8.533,8.533,8.533s8.533-3.823,8.533-8.533
				v-8.533h34.133v8.533c0,4.71,3.823,8.533,8.533,8.533c4.71,0,8.533-3.823,8.533-8.533V486.4
				C409.601,481.69,405.778,477.867,401.068,477.867z"/>
			<path d="M162.134,477.867h-51.2c-4.71,0-8.533,3.823-8.533,8.533v17.067c0,4.71,3.823,8.533,8.533,8.533
				c4.71,0,8.533-3.823,8.533-8.533v-8.533h34.133v8.533c0,4.71,3.823,8.533,8.533,8.533c4.71,0,8.533-3.823,8.533-8.533V486.4
				C170.668,481.69,166.845,477.867,162.134,477.867z"/>
			<path d="M511.745,501.394l-8.713-34.756c-10.522-31.556-58.317-39.97-84.898-39.97h-34.133
				c-37.146,0-52.053-20.966-52.634-21.803c-1.297-1.946-3.345-3.268-5.658-3.669c-2.304-0.418-4.685,0.171-6.554,1.57
				c-0.324,0.247-32.358,23.902-63.155,23.902s-62.831-23.654-63.155-23.902c-1.869-1.399-4.241-1.98-6.554-1.57
				c-2.313,0.401-4.361,1.724-5.658,3.669c-0.145,0.222-14.967,21.803-52.634,21.803H93.868c-26.581,0-74.377,8.414-85.077,40.593
				l-8.533,34.133c-1.143,4.574,1.638,9.207,6.204,10.351c4.565,1.143,9.207-1.638,10.351-6.204l8.354-33.51
				c6.869-20.617,45.781-28.297,68.702-28.297h34.133c33.067,0,52.412-14.14,61.175-22.818
				c10.846,6.972,33.707,19.695,58.291,22.272v60.279c0,4.71,3.823,8.533,8.533,8.533c4.71,0,8.533-3.823,8.533-8.533v-60.279
				c24.585-2.577,47.445-15.3,58.291-22.272c8.764,8.678,28.109,22.818,61.175,22.818h34.133c22.921,0,61.833,7.68,68.523,27.674
				l8.533,34.133c0.973,3.874,4.446,6.46,8.269,6.46c0.691,0,1.382-0.077,2.082-0.256
				C510.106,510.601,512.888,505.967,511.745,501.394z"/>
			<path d="M290.134,238.934c0,4.71,3.823,8.533,8.533,8.533s8.533-3.823,8.533-8.533h8.533c4.71,0,8.533-3.823,8.533-8.533
				s-3.823-8.533-8.533-8.533h-34.133c-4.71,0-8.533,3.823-8.533,8.533s3.823,8.533,8.533,8.533H290.134z"/>
			<path d="M17.144,322.117c0.802,38.588,9.267,57.694,36.557,84.984c1.664,1.664,3.849,2.5,6.033,2.5s4.369-0.836,6.033-2.5
				c3.336-3.337,3.336-8.73,0-12.066c-21.99-21.999-30.379-36.343-31.488-70.767h17.237c1.536,31.471,11.895,49.681,37.615,66.833
				c1.459,0.973,3.106,1.434,4.727,1.434c2.756,0,5.461-1.331,7.108-3.797c2.611-3.925,1.553-9.225-2.364-11.836
				c-21.615-14.404-29.167-27.955-30.14-54.972c5.419-3.183,8.328-9.216,8.311-15.386L68.242,195.61
				c-0.341-4.446-4.053-7.876-8.508-7.876H25.601c-4.454,0-8.166,3.43-8.508,7.876L8.534,307.2
				C8.534,313.012,11.546,319.019,17.144,322.117z M33.503,204.8h18.364l8.337,102.366c0,0-0.136,0.034-0.469,0.034l-34.091-0.239
				L33.503,204.8z"/>
			<path d="M247.468,324.267c-4.71,0-8.533,3.823-8.533,8.533c0,4.71,3.823,8.533,8.533,8.533h17.067
				c4.71,0,8.533-3.823,8.533-8.533c0-4.71-3.823-8.533-8.533-8.533H247.468z"/>
		</g>
	</g>
</g>
<g>
</g>
<g>
</g>
<g>
</g>
<g>
</g>
<g>
</g>
<g>
</g>
<g>
</g>
<g>
</g>
<g>
</g>
<g>
</g>
<g>
</g>
<g>
</g>
<g>
</g>
<g>
</g>
<g>
</g>
</svg>
