<?xml version="1.0" encoding="iso-8859-1"?>
<!-- Generator: Adobe Illustrator 16.0.0, SVG Export Plug-In . SVG Version: 6.00 Build 0)  -->
<!DOCTYPE svg PUBLIC "-//W3C//DTD SVG 1.1//EN" "http://www.w3.org/Graphics/SVG/1.1/DTD/svg11.dtd">
<svg version="1.1" id="Capa_1" xmlns="http://www.w3.org/2000/svg" xmlns:xlink="http://www.w3.org/1999/xlink" x="0px" y="0px"
	 width="63.891px" height="63.891px" viewBox="0 0 63.891 63.891" style="enable-background:new 0 0 63.891 63.891;"
	 xml:space="preserve">
<g>
	<path d="M37.669,11.805c-0.422-2.795-2.812-4.948-5.724-4.948c-2.915,0-5.305,2.152-5.723,4.948H37.669z"/>
	<path d="M23.102,3.471l3.909,3.907L25.359,9.03l-3.911-3.908L23.102,3.471z M30.777,0h2.336v5.528h-2.336V0z M40.791,3.756
		l1.652,1.651l-3.91,3.91l-1.651-1.651L40.791,3.756z"/>
	<path d="M55.027,29.851l-3.679-16.815H12.542L8.863,29.851H2.652v26.323H6.56v7.717h11.679v-7.717h27.414v7.717h11.679v-7.717
		h3.908V29.851H55.027z M14.516,43.468H6.534v-7.983h7.981V43.468z M45.345,50.896H18.545V48.56h26.799V50.896z M45.345,44.175
		H18.545V41.84h26.799V44.175z M45.345,37.455H18.545v-2.336h26.799V37.455z M47.776,29.851H40.89
		c-0.03-0.189-0.058-0.378-0.058-0.575c0-1.931,1.569-3.504,3.5-3.504c1.932,0,3.501,1.573,3.501,3.504
		C47.833,29.47,47.806,29.66,47.776,29.851z M44.332,23.435c-3.219,0-5.835,2.621-5.835,5.839c0,0.196,0.036,0.383,0.057,0.575
		H13.451l2.658-12.145h31.676l2.657,12.145h-0.33c0.021-0.192,0.059-0.379,0.059-0.575C50.169,26.056,47.553,23.435,44.332,23.435z
		 M57.356,43.468h-7.981v-7.983h7.981V43.468z"/>
</g>
<g>
</g>
<g>
</g>
<g>
</g>
<g>
</g>
<g>
</g>
<g>
</g>
<g>
</g>
<g>
</g>
<g>
</g>
<g>
</g>
<g>
</g>
<g>
</g>
<g>
</g>
<g>
</g>
<g>
</g>
</svg>
